<svg width="16" height="20" viewBox="0 0 16 20" fill="none" xmlns="http://www.w3.org/2000/svg">
<path d="M8.72135 3.00302L7.25535 3.00002C3.91135 2.99202 1.00835 5.70902 0.985354 9.00002V12.79C0.985354 13.58 0.885354 14.351 0.454354 15.008L0.167354 15.446C-0.269646 16.11 0.200354 17 0.985354 17H15.0154C15.8004 17 16.2694 16.11 15.8334 15.446L15.5464 15.008C15.1164 14.351 15.0154 13.579 15.0154 12.789V9.00102C14.9754 5.70902 12.0654 3.01102 8.72135 3.00302ZM11.0004 17C11.0004 17.7957 10.6843 18.5587 10.1217 19.1213C9.55907 19.6839 8.796 20 8.00035 20C7.20471 20 6.44164 19.6839 5.87903 19.1213C5.31642 18.5587 5.00035 17.7957 5.00035 17" fill="#A3A3A6"/>
<path d="M8.00024 0C8.53068 0 9.03938 0.210714 9.41446 0.585786C9.78953 0.960859 10.0002 1.46957 10.0002 2V3H6.00024V2C6.00024 1.46957 6.21096 0.960859 6.58603 0.585786C6.9611 0.210714 7.46981 0 8.00024 0Z" fill="#A3A3A6"/>
</svg>
