<svg width="18" height="18" viewBox="0 0 18 18" fill="none" xmlns="http://www.w3.org/2000/svg">
<path d="M10.7998 17.999H1.80084C1.56225 18.0072 1.32451 17.9664 1.1024 17.8788C0.88029 17.7913 0.678558 17.6591 0.509751 17.4903C0.340943 17.3214 0.208669 17.1197 0.121155 16.8976C0.0336415 16.6755 -0.007241 16.4377 0.00104996 16.1992V7.20021C-0.007241 6.96162 0.0336415 6.72388 0.121155 6.50177C0.208669 6.27966 0.340943 6.07793 0.509751 5.90912C0.678558 5.74031 0.88029 5.60804 1.1024 5.52053C1.32451 5.43301 1.56225 5.39213 1.80084 5.40042H5.40042V1.80084C5.39213 1.56225 5.43301 1.32451 5.52053 1.1024C5.60804 0.88029 5.74031 0.678558 5.90912 0.509751C6.07793 0.340943 6.27966 0.208669 6.50177 0.121155C6.72388 0.0336415 6.96162 -0.007241 7.20021 0.00104996H16.1992C16.4377 -0.007241 16.6755 0.0336415 16.8976 0.121155C17.1197 0.208669 17.3214 0.340943 17.4903 0.509751C17.6591 0.678558 17.7913 0.88029 17.8788 1.1024C17.9664 1.32451 18.0072 1.56225 17.999 1.80084V10.7998C18.0071 11.0383 17.9661 11.276 17.8786 11.4981C17.791 11.7201 17.6587 11.9218 17.49 12.0906C17.3212 12.2594 17.1195 12.3916 16.8974 12.4792C16.6754 12.5668 16.4377 12.6077 16.1992 12.5996H12.5996V16.1992C12.6077 16.4377 12.5668 16.6754 12.4792 16.8974C12.3916 17.1195 12.2594 17.3212 12.0906 17.49C11.9218 17.6587 11.7201 17.791 11.4981 17.8786C11.276 17.9661 11.0383 18.0071 10.7998 17.999ZM1.80084 7.20021V16.1992H10.7998V12.5996H7.20021C6.96166 12.6077 6.72398 12.5668 6.50193 12.4792C6.27988 12.3916 6.0782 12.2594 5.90942 12.0906C5.74064 11.9218 5.60836 11.7201 5.5208 11.4981C5.43324 11.276 5.39226 11.0383 5.40042 10.7998V7.20021H1.80084ZM7.20021 1.80084V10.7998H16.1992V1.80084H7.20021Z" fill="white"/>
</svg>
