<svg width="17" height="14" viewBox="0 0 17 14" fill="none" xmlns="http://www.w3.org/2000/svg">
<path d="M11.7834 12.874V11.5527C11.7834 10.8519 11.4913 10.1797 10.9714 9.68415C10.4514 9.18857 9.74621 8.91016 9.0109 8.91016H3.46587C2.73056 8.91016 2.02536 9.18857 1.50541 9.68415C0.985463 10.1797 0.693359 10.8519 0.693359 11.5527V12.874" stroke="white" stroke-linecap="round" stroke-linejoin="round"/>
<path d="M6.23833 6.2656C7.76955 6.2656 9.01084 5.08248 9.01084 3.62303C9.01084 2.16359 7.76955 0.980469 6.23833 0.980469C4.70712 0.980469 3.46582 2.16359 3.46582 3.62303C3.46582 5.08248 4.70712 6.2656 6.23833 6.2656Z" stroke="white" stroke-linecap="round" stroke-linejoin="round"/>
<path d="M15.9417 12.8741V11.5528C15.9412 10.9673 15.7368 10.3985 15.3604 9.93573C14.984 9.47298 14.4571 9.14247 13.8623 8.99609" stroke="white" stroke-linecap="round" stroke-linejoin="round"/>
<path d="M11.0898 1.06641C11.6862 1.21195 12.2148 1.54253 12.5923 2.00604C12.9698 2.46956 13.1747 3.03963 13.1747 3.62639C13.1747 4.21315 12.9698 4.78323 12.5923 5.24674C12.2148 5.71025 11.6862 6.04084 11.0898 6.18638" stroke="white" stroke-linecap="round" stroke-linejoin="round"/>
</svg>
