<svg width="18" height="18" viewBox="0 0 18 18" fill="none" xmlns="http://www.w3.org/2000/svg">
<path d="M11.6999 18C11.9386 18 12.1675 17.9052 12.3363 17.7364C12.505 17.5676 12.5999 17.3387 12.5999 17.1C12.5999 16.8613 12.505 16.6324 12.3363 16.4636C12.1675 16.2948 11.9386 16.2 11.6999 16.2H4.19995C3.56344 16.2 2.953 15.9471 2.50292 15.4971C2.05283 15.047 1.79998 14.4365 1.79998 13.8V4.2C1.79998 3.56348 2.05283 2.95303 2.50292 2.50294C2.953 2.05286 3.56344 1.8 4.19995 1.8H11.6999C11.9386 1.8 12.1675 1.70518 12.3363 1.5364C12.505 1.36761 12.5999 1.13869 12.5999 0.9C12.5999 0.661305 12.505 0.432387 12.3363 0.263604C12.1675 0.094821 11.9386 0 11.6999 0H4.19995C3.08606 0 2.01778 0.442499 1.23014 1.23015C0.442494 2.0178 0 3.08609 0 4.2V13.8C0 14.9139 0.442494 15.9822 1.23014 16.7698C2.01778 17.5575 3.08606 18 4.19995 18H11.6999ZM12.8891 4.4388C12.9759 4.35857 13.0777 4.29623 13.1886 4.25534C13.2995 4.21446 13.4174 4.19582 13.5355 4.2005C13.6536 4.20518 13.7697 4.23309 13.877 4.28262C13.9843 4.33216 14.0808 4.40235 14.161 4.4892L17.761 8.3892C17.9147 8.55549 18 8.77359 18 9C18 9.22641 17.9147 9.44451 17.761 9.6108L14.161 13.5108C13.9989 13.686 13.7738 13.7896 13.5352 13.7988C13.2967 13.8081 13.0643 13.7222 12.8891 13.56C12.7139 13.3978 12.6102 13.1727 12.601 12.9342C12.5918 12.6956 12.6777 12.4632 12.8399 12.288L15.0454 9.8988H5.69994C5.46124 9.8988 5.23233 9.80398 5.06355 9.6352C4.89477 9.46641 4.79995 9.23749 4.79995 8.9988C4.79995 8.76011 4.89477 8.53119 5.06355 8.3624C5.23233 8.19362 5.46124 8.0988 5.69994 8.0988H15.0442L12.8387 5.7096C12.7584 5.62278 12.6961 5.521 12.6552 5.41009C12.6143 5.29917 12.5957 5.18128 12.6004 5.06316C12.605 4.94504 12.6329 4.829 12.6825 4.72166C12.732 4.61433 12.8022 4.5178 12.8891 4.4376V4.4388Z" fill="white"/>
</svg>
