<svg width="16" height="16" viewBox="0 0 16 16" fill="none" xmlns="http://www.w3.org/2000/svg">
<path d="M8 0C3.57333 0 0 3.57333 0 8C0 12.4267 3.57333 16 8 16C12.4267 16 16 12.4267 16 8C16 3.57333 12.4267 0 8 0ZM7.85776 13.3333C5.84884 13.3333 4.05332 11.6978 4.2311 9.68889C4.44439 7.34229 5.68881 5.79556 5.67106 5.81333C5.31554 8.2134 6.29335 9.38667 7.35992 8.96003C7.94659 8.72888 7.76878 7.02229 7.83995 6.04448C8.07098 3.16438 10.0443 2.6667 10.0266 2.6667C9.1377 4.30225 9.17329 5.92003 10.2755 6.9867C10.9865 7.68003 11.4843 8.62225 11.4843 9.68895C11.4844 11.6979 9.86661 13.3334 7.85763 13.3334L7.85776 13.3333Z" fill="#7167FF"/>
</svg>
