<svg width="16" height="16" viewBox="0 0 16 16" fill="none" xmlns="http://www.w3.org/2000/svg">
<mask id="path-1-inside-1_895_19727" fill="white">
<path d="M9.64992 1.09642C9.51929 0.976739 9.34743 0.912071 9.17021 0.915909C8.99299 0.919747 8.8241 0.991796 8.6988 1.11702L1.11853 8.68866C1.05461 8.75243 1.0039 8.82816 0.969295 8.91152C0.934694 8.99488 0.916884 9.08423 0.916884 9.17447C0.916884 9.26471 0.934694 9.35406 0.969295 9.43742C1.0039 9.52078 1.05461 9.59652 1.11853 9.66029L2.17966 10.72C2.18309 10.72 2.19112 10.7235 2.20716 10.7235C2.24154 10.7235 2.28737 10.7109 2.33092 10.6823C2.74972 10.4032 3.25241 10.2778 3.75342 10.3272C4.25443 10.3767 4.72279 10.598 5.07879 10.9536C5.43478 11.3091 5.6564 11.7769 5.70593 12.2772C5.75545 12.7776 5.62982 13.2796 5.35042 13.6979C5.32526 13.7344 5.31096 13.7772 5.30917 13.8215C5.30917 13.8364 5.31146 13.8444 5.3126 13.8478L6.34852 14.8835C6.41361 14.9487 6.49116 15.0001 6.57655 15.0347C6.66193 15.0693 6.75342 15.0865 6.84556 15.0851C6.93771 15.0837 7.02864 15.0638 7.11294 15.0266C7.19724 14.9895 7.2732 14.9357 7.3363 14.8687L14.8982 6.84381C14.9605 6.77757 15.009 6.69964 15.0409 6.61454C15.0728 6.52944 15.0875 6.43886 15.0841 6.34806C15.0806 6.25725 15.0592 6.16803 15.021 6.08556C14.9828 6.00308 14.9286 5.929 14.8616 5.8676L13.8463 4.93717H13.8428C13.8266 4.93393 13.8098 4.93393 13.7936 4.93717C13.7289 4.95063 13.67 4.98382 13.6251 5.03216C13.4336 5.24894 13.2008 5.4254 12.9402 5.55124C12.6796 5.67708 12.3965 5.74975 12.1074 5.76502C11.8184 5.78029 11.5292 5.73784 11.2567 5.64016C10.9843 5.54248 10.7341 5.39153 10.5208 5.19613C10.3075 5.00074 10.1353 4.76482 10.0144 4.50218C9.89341 4.23955 9.82611 3.95546 9.81641 3.66654C9.8067 3.37762 9.85477 3.08966 9.95782 2.81952C10.0609 2.54938 10.2168 2.30246 10.4165 2.09323C10.4606 2.04412 10.4882 1.98251 10.4956 1.91698C10.4976 1.90089 10.4964 1.88457 10.4922 1.86892V1.86548L9.65106 1.09642H9.64992ZM8.05136 0.46926C8.3437 0.177304 8.73761 0.00933266 9.15094 0.000377313C9.56427 -0.00857803 9.96511 0.142174 10.2699 0.421194L11.1098 1.1914C11.3608 1.42029 11.4307 1.73273 11.4078 1.99938C11.3837 2.2626 11.268 2.5201 11.0892 2.71351C10.9773 2.8354 10.8906 2.9781 10.8339 3.13347C10.7772 3.28884 10.7518 3.45383 10.7589 3.61903C10.7661 3.78423 10.8058 3.9464 10.8758 4.09628C10.9457 4.24616 11.0445 4.38081 11.1665 4.49255C11.2886 4.60429 11.4315 4.69093 11.587 4.74752C11.7426 4.80412 11.9078 4.82955 12.0732 4.82238C12.2386 4.81521 12.401 4.77556 12.5511 4.70572C12.7012 4.63587 12.836 4.53719 12.9479 4.4153C13.1255 4.22075 13.3719 4.08341 13.632 4.03649C13.7787 4.00708 13.9302 4.01214 14.0746 4.05127C14.219 4.0904 14.3523 4.16253 14.4639 4.26195L15.4804 5.19238C15.6368 5.33578 15.7633 5.50879 15.8523 5.70137C15.9413 5.89394 15.9911 6.10225 15.9989 6.31422C16.0067 6.52618 15.9723 6.73758 15.8976 6.93615C15.823 7.13472 15.7096 7.3165 15.564 7.47097L8.00208 15.4958C7.85484 15.6521 7.67768 15.7772 7.4811 15.8638C7.28452 15.9504 7.07253 15.9966 6.85771 15.9998C6.64288 16.003 6.42961 15.9631 6.23053 15.8824C6.03145 15.8017 5.85062 15.6819 5.69878 15.5301L4.66287 14.4956C4.26523 14.0984 4.36149 13.5262 4.58609 13.1909C4.74723 12.9488 4.81949 12.6584 4.7906 12.3691C4.76172 12.0798 4.63347 11.8095 4.42763 11.6039C4.22179 11.3983 3.95105 11.2702 3.66139 11.2414C3.37173 11.2125 3.08099 11.2847 2.83856 11.4456C2.50051 11.6688 1.9287 11.7649 1.53107 11.3667L0.469943 10.3069C0.320954 10.1581 0.202768 9.98148 0.122135 9.78708C0.0415015 9.59268 0 9.38432 0 9.1739C0 8.96348 0.0415015 8.75512 0.122135 8.56072C0.202768 8.36632 0.320954 8.18968 0.469943 8.0409L8.05136 0.470405V0.46926Z"/>
</mask>
<path d="M9.64992 1.09642C9.51929 0.976739 9.34743 0.912071 9.17021 0.915909C8.99299 0.919747 8.8241 0.991796 8.6988 1.11702L1.11853 8.68866C1.05461 8.75243 1.0039 8.82816 0.969295 8.91152C0.934694 8.99488 0.916884 9.08423 0.916884 9.17447C0.916884 9.26471 0.934694 9.35406 0.969295 9.43742C1.0039 9.52078 1.05461 9.59652 1.11853 9.66029L2.17966 10.72C2.18309 10.72 2.19112 10.7235 2.20716 10.7235C2.24154 10.7235 2.28737 10.7109 2.33092 10.6823C2.74972 10.4032 3.25241 10.2778 3.75342 10.3272C4.25443 10.3767 4.72279 10.598 5.07879 10.9536C5.43478 11.3091 5.6564 11.7769 5.70593 12.2772C5.75545 12.7776 5.62982 13.2796 5.35042 13.6979C5.32526 13.7344 5.31096 13.7772 5.30917 13.8215C5.30917 13.8364 5.31146 13.8444 5.3126 13.8478L6.34852 14.8835C6.41361 14.9487 6.49116 15.0001 6.57655 15.0347C6.66193 15.0693 6.75342 15.0865 6.84556 15.0851C6.93771 15.0837 7.02864 15.0638 7.11294 15.0266C7.19724 14.9895 7.2732 14.9357 7.3363 14.8687L14.8982 6.84381C14.9605 6.77757 15.009 6.69964 15.0409 6.61454C15.0728 6.52944 15.0875 6.43886 15.0841 6.34806C15.0806 6.25725 15.0592 6.16803 15.021 6.08556C14.9828 6.00308 14.9286 5.929 14.8616 5.8676L13.8463 4.93717H13.8428C13.8266 4.93393 13.8098 4.93393 13.7936 4.93717C13.7289 4.95063 13.67 4.98382 13.6251 5.03216C13.4336 5.24894 13.2008 5.4254 12.9402 5.55124C12.6796 5.67708 12.3965 5.74975 12.1074 5.76502C11.8184 5.78029 11.5292 5.73784 11.2567 5.64016C10.9843 5.54248 10.7341 5.39153 10.5208 5.19613C10.3075 5.00074 10.1353 4.76482 10.0144 4.50218C9.89341 4.23955 9.82611 3.95546 9.81641 3.66654C9.8067 3.37762 9.85477 3.08966 9.95782 2.81952C10.0609 2.54938 10.2168 2.30246 10.4165 2.09323C10.4606 2.04412 10.4882 1.98251 10.4956 1.91698C10.4976 1.90089 10.4964 1.88457 10.4922 1.86892V1.86548L9.65106 1.09642H9.64992ZM8.05136 0.46926C8.3437 0.177304 8.73761 0.00933266 9.15094 0.000377313C9.56427 -0.00857803 9.96511 0.142174 10.2699 0.421194L11.1098 1.1914C11.3608 1.42029 11.4307 1.73273 11.4078 1.99938C11.3837 2.2626 11.268 2.5201 11.0892 2.71351C10.9773 2.8354 10.8906 2.9781 10.8339 3.13347C10.7772 3.28884 10.7518 3.45383 10.7589 3.61903C10.7661 3.78423 10.8058 3.9464 10.8758 4.09628C10.9457 4.24616 11.0445 4.38081 11.1665 4.49255C11.2886 4.60429 11.4315 4.69093 11.587 4.74752C11.7426 4.80412 11.9078 4.82955 12.0732 4.82238C12.2386 4.81521 12.401 4.77556 12.5511 4.70572C12.7012 4.63587 12.836 4.53719 12.9479 4.4153C13.1255 4.22075 13.3719 4.08341 13.632 4.03649C13.7787 4.00708 13.9302 4.01214 14.0746 4.05127C14.219 4.0904 14.3523 4.16253 14.4639 4.26195L15.4804 5.19238C15.6368 5.33578 15.7633 5.50879 15.8523 5.70137C15.9413 5.89394 15.9911 6.10225 15.9989 6.31422C16.0067 6.52618 15.9723 6.73758 15.8976 6.93615C15.823 7.13472 15.7096 7.3165 15.564 7.47097L8.00208 15.4958C7.85484 15.6521 7.67768 15.7772 7.4811 15.8638C7.28452 15.9504 7.07253 15.9966 6.85771 15.9998C6.64288 16.003 6.42961 15.9631 6.23053 15.8824C6.03145 15.8017 5.85062 15.6819 5.69878 15.5301L4.66287 14.4956C4.26523 14.0984 4.36149 13.5262 4.58609 13.1909C4.74723 12.9488 4.81949 12.6584 4.7906 12.3691C4.76172 12.0798 4.63347 11.8095 4.42763 11.6039C4.22179 11.3983 3.95105 11.2702 3.66139 11.2414C3.37173 11.2125 3.08099 11.2847 2.83856 11.4456C2.50051 11.6688 1.9287 11.7649 1.53107 11.3667L0.469943 10.3069C0.320954 10.1581 0.202768 9.98148 0.122135 9.78708C0.0415015 9.59268 0 9.38432 0 9.1739C0 8.96348 0.0415015 8.75512 0.122135 8.56072C0.202768 8.36632 0.320954 8.18968 0.469943 8.0409L8.05136 0.470405V0.46926Z" fill="white"/>
<path d="M9.64991 1.09642L8.29884 2.57107L8.87224 3.09642H9.64991V1.09642ZM8.6988 1.11702L10.1122 2.53203L10.1125 2.53171L8.6988 1.11702ZM1.11853 8.68866L2.53105 10.1046L2.53194 10.1037L1.11853 8.68866ZM0.916884 9.17447H2.91688H0.916884ZM1.11853 9.66029L2.53184 8.24516L2.53105 8.24438L1.11853 9.66029ZM2.17966 10.72L0.766356 12.1352L1.35199 12.72H2.17966V10.72ZM2.33092 10.6823L3.42918 12.3538L3.43988 12.3467L2.33092 10.6823ZM5.35042 13.6979L6.99689 14.8333L7.00528 14.8211L7.01349 14.8088L5.35042 13.6979ZM5.30917 13.8215L3.3108 13.7406L3.30917 13.781V13.8215H5.30917ZM5.3126 13.8478L3.41548 14.481L3.56486 14.9286L3.89852 15.2621L5.3126 13.8478ZM6.34852 14.8835L7.76329 13.4699L7.7626 13.4692L6.34852 14.8835ZM7.3363 14.8687L5.88073 13.497L5.87954 13.4983L7.3363 14.8687ZM14.8982 6.84381L16.3538 8.21542L16.3554 8.21372L14.8982 6.84381ZM14.8616 5.8676L13.5103 7.34209L13.5111 7.34283L14.8616 5.8676ZM13.8463 4.93717L15.1975 3.46268L14.6241 2.93717H13.8463V4.93717ZM13.8428 4.93717L13.4524 6.89869L13.6457 6.93717H13.8428V4.93717ZM13.7936 4.93717L13.4031 2.97565L13.3945 2.97736L13.3859 2.97915L13.7936 4.93717ZM13.6251 5.03216L12.1603 3.67042L12.143 3.68903L12.1262 3.70806L13.6251 5.03216ZM10.4165 2.09323L11.8632 3.47418L11.8845 3.45193L11.905 3.42905L10.4165 2.09323ZM10.4956 1.91698L8.51033 1.67472L8.50917 1.68422L8.5081 1.69374L10.4956 1.91698ZM10.4922 1.86892H8.49217V2.13468L8.56157 2.39122L10.4922 1.86892ZM10.4922 1.86548H12.4922V0.984174L11.8418 0.389472L10.4922 1.86548ZM9.65106 1.09642L11.0007 -0.379594L10.4276 -0.903585H9.65106V1.09642ZM8.05136 0.46926L6.63808 -0.94589L6.05135 -0.359943V0.46926H8.05136ZM10.2699 0.421194L11.6215 -1.0529L11.6204 -1.05391L10.2699 0.421194ZM11.1098 1.1914L9.75813 2.6655L9.76207 2.6691L11.1098 1.1914ZM11.4078 1.99938L13.3995 2.18147L13.4004 2.17065L11.4078 1.99938ZM11.0892 2.71351L9.62045 1.356L9.61583 1.36104L11.0892 2.71351ZM12.9479 4.4153L14.4212 5.76779L14.4249 5.76376L12.9479 4.4153ZM13.632 4.03649L13.987 6.00473L14.0061 6.00128L14.0251 5.99747L13.632 4.03649ZM14.4639 4.26195L15.8144 2.7867L15.8041 2.77735L15.7938 2.76815L14.4639 4.26195ZM15.4804 5.19238L16.8316 3.71788L16.8308 3.71713L15.4804 5.19238ZM15.564 7.47097L17.0196 8.84258L17.0196 8.84256L15.564 7.47097ZM8.00208 15.4958L6.54651 14.1242L6.54647 14.1242L8.00208 15.4958ZM6.85771 15.9998L6.88751 17.9996L6.85771 15.9998ZM5.69878 15.5301L7.11281 14.1157L7.11208 14.115L5.69878 15.5301ZM4.66287 14.4956L6.07617 13.0804H6.07617L4.66287 14.4956ZM4.58609 13.1909L6.24779 14.3039L6.25107 14.299L4.58609 13.1909ZM2.83856 11.4456L3.94044 13.1147L3.94466 13.1119L2.83856 11.4456ZM1.53107 11.3667L2.9464 9.95356L2.94437 9.95153L1.53107 11.3667ZM0.469943 10.3069L1.88325 8.89177L1.88317 8.8917L0.469943 10.3069ZM0 9.1739H2H0ZM0.469943 8.0409L-0.943251 6.62567L-0.943286 6.6257L0.469943 8.0409ZM8.05136 0.470405L9.46455 1.88564L10.0514 1.29968V0.470405H8.05136ZM11.001 -0.378236C10.4903 -0.846159 9.81883 -1.09861 9.12691 -1.08362L9.21352 2.91544C8.87604 2.92275 8.54832 2.79964 8.29884 2.57107L11.001 -0.378236ZM9.12691 -1.08362C8.43497 -1.06864 7.77507 -0.787344 7.28507 -0.297679L10.1125 2.53171C9.87314 2.77094 9.55101 2.90813 9.21352 2.91544L9.12691 -1.08362ZM7.28539 -0.298003L-0.294874 7.27364L2.53194 10.1037L10.1122 2.53203L7.28539 -0.298003ZM-0.293979 7.27274C-0.543979 7.52214 -0.742445 7.81845 -0.877902 8.1448L2.81649 9.67824C2.75024 9.83787 2.6532 9.98271 2.53105 10.1046L-0.293979 7.27274ZM-0.877902 8.1448C-1.01336 8.47114 -1.08312 8.82104 -1.08312 9.17447H2.91688C2.91688 9.34742 2.88275 9.51862 2.81649 9.67824L-0.877902 8.1448ZM-1.08312 9.17447C-1.08312 9.5279 -1.01336 9.8778 -0.877902 10.2041L2.81649 8.6707C2.88275 8.83033 2.91688 9.00152 2.91688 9.17447H-1.08312ZM-0.877902 10.2041C-0.742445 10.5305 -0.543979 10.8268 -0.293979 11.0762L2.53105 8.24438C2.6532 8.36623 2.75024 8.51108 2.81649 8.6707L-0.877902 10.2041ZM-0.294767 11.0754L0.766356 12.1352L3.59296 9.30492L2.53184 8.24516L-0.294767 11.0754ZM2.17966 12.72C2.13842 12.72 2.10114 12.7188 2.06862 12.7169C2.03606 12.7151 2.00677 12.7127 1.98137 12.7102C1.95593 12.7076 1.93314 12.7048 1.91352 12.7022C1.89386 12.6995 1.87634 12.6969 1.8614 12.6945C1.8322 12.6897 1.80848 12.6852 1.7932 12.6822C1.77777 12.6791 1.76568 12.6765 1.75976 12.6753C1.75408 12.674 1.74938 12.673 1.75041 12.6732C1.75042 12.6732 1.75043 12.6732 1.75046 12.6732C1.75048 12.6732 1.75052 12.6732 1.75057 12.6732C1.75066 12.6733 1.75081 12.6733 1.75098 12.6733C1.75132 12.6734 1.75187 12.6735 1.75253 12.6737C1.75385 12.674 1.75587 12.6744 1.75832 12.6749C1.76827 12.6771 1.78639 12.681 1.80908 12.6854C1.83207 12.6898 1.85912 12.6947 1.88957 12.6993C1.92001 12.704 1.9527 12.7083 1.98746 12.712C2.05764 12.7194 2.13098 12.7235 2.20716 12.7235V8.72348C2.27532 8.72348 2.34164 8.72717 2.4057 8.7339C2.4374 8.73724 2.46724 8.74118 2.49506 8.74544C2.52288 8.7497 2.54751 8.7541 2.56828 8.75811C2.58876 8.76207 2.60484 8.76554 2.61296 8.76731C2.61645 8.76808 2.61954 8.76877 2.61824 8.76848C2.61804 8.76843 2.6166 8.76811 2.61487 8.76773C2.61307 8.76733 2.61014 8.76669 2.60654 8.76591C2.59988 8.76446 2.58708 8.76172 2.57099 8.75853C2.55506 8.75537 2.53072 8.75074 2.50093 8.74592C2.4857 8.74345 2.4679 8.74075 2.44798 8.73806C2.42808 8.73538 2.40503 8.73257 2.37934 8.73C2.35369 8.72744 2.32415 8.72498 2.29136 8.72316C2.25861 8.72133 2.22111 8.72004 2.17966 8.72004V12.72ZM2.20716 12.7235C2.67641 12.7235 3.0988 12.5708 3.42916 12.3538L1.23267 9.01079C1.36586 8.92328 1.50989 8.85511 1.66096 8.80719C1.8066 8.761 1.9911 8.72348 2.20716 8.72348V12.7235ZM3.43988 12.3467C3.47407 12.3239 3.51546 12.3135 3.55693 12.3176L3.94992 8.3369C2.98937 8.24207 2.02537 8.48258 1.22196 9.01788L3.43988 12.3467ZM3.55693 12.3176C3.59838 12.3216 3.63669 12.3399 3.66548 12.3687L6.49209 9.53843C5.8089 8.85612 4.91048 8.43174 3.94992 8.3369L3.55693 12.3176ZM3.66548 12.3687C3.69423 12.3974 3.71175 12.4347 3.71565 12.4742L7.6962 12.0802C7.60106 11.119 7.17533 10.2208 6.49209 9.53843L3.66548 12.3687ZM3.71565 12.4742C3.71956 12.5137 3.7097 12.5535 3.68735 12.5869L7.01349 14.8088C7.54995 14.0058 7.79135 13.0415 7.6962 12.0802L3.71565 12.4742ZM3.70395 12.5625C3.46429 12.91 3.32788 13.3185 3.3108 13.7406L7.30753 13.9023C7.29403 14.236 7.18623 14.5587 6.99689 14.8333L3.70395 12.5625ZM3.30917 13.8215C3.30917 14.0631 3.34993 14.2846 3.41548 14.481L7.20973 13.2146C7.2358 13.2927 7.26361 13.3925 7.28317 13.5097C7.3017 13.6207 7.30917 13.7254 7.30917 13.8215H3.30917ZM3.89852 15.2621L4.93443 16.2979L7.7626 13.4692L6.72669 12.4335L3.89852 15.2621ZM4.93374 16.2972C5.18832 16.552 5.49144 16.7529 5.825 16.8881L7.32809 13.1813C7.49088 13.2473 7.63891 13.3454 7.76329 13.4699L4.93374 16.2972ZM5.825 16.8881C6.15856 17.0234 6.51586 17.0903 6.87568 17.0849L6.81544 13.0853C6.99098 13.0827 7.1653 13.1153 7.32809 13.1813L5.825 16.8881ZM6.87568 17.0849C7.2355 17.0794 7.59063 17.0018 7.91999 16.8566L6.30589 13.1967C6.46664 13.1258 6.63992 13.0879 6.81544 13.0853L6.87568 17.0849ZM7.91999 16.8566C8.24935 16.7113 8.54628 16.5013 8.79306 16.239L5.87954 13.4983C6.00012 13.3701 6.14513 13.2676 6.30589 13.1967L7.91999 16.8566ZM8.79187 16.2403L16.3538 8.21542L13.4427 5.4722L5.88073 13.497L8.79187 16.2403ZM16.3554 8.21372C16.599 7.95462 16.7888 7.64968 16.9137 7.31651L13.1681 5.91257C13.2292 5.74959 13.322 5.60051 13.4411 5.47391L16.3554 8.21372ZM16.9137 7.31651C17.0385 6.98333 17.096 6.62863 17.0826 6.27298L13.0855 6.42313C13.0789 6.2491 13.107 6.07555 13.1681 5.91257L16.9137 7.31651ZM17.0826 6.27298C17.0693 5.91735 16.9854 5.56797 16.8359 5.24512L13.2062 6.92599C13.1331 6.76809 13.092 6.59716 13.0855 6.42313L17.0826 6.27298ZM16.8359 5.24512C16.6864 4.92227 16.4743 4.63245 16.212 4.39237L13.5111 7.34283C13.383 7.22555 13.2793 7.0839 13.2062 6.92599L16.8359 5.24512ZM16.2128 4.39312L15.1975 3.46268L12.495 6.41165L13.5103 7.34209L16.2128 4.39312ZM13.8463 2.93717H13.8428V6.93717H13.8463V2.93717ZM14.2333 2.97565C13.9592 2.92111 13.6772 2.92111 13.4031 2.97565L14.184 6.89869C13.9425 6.94676 13.6939 6.94676 13.4524 6.89869L14.2333 2.97565ZM13.3859 2.97915C12.9159 3.07701 12.4875 3.31841 12.1603 3.67042L15.0899 6.39389C14.8526 6.64923 14.5419 6.82425 14.2012 6.89519L13.3859 2.97915ZM12.1262 3.70806C12.1108 3.72553 12.0919 3.73991 12.0705 3.75022L13.8098 7.35226C14.3097 7.1109 14.7565 6.77234 15.124 6.35626L12.1262 3.70806ZM12.0705 3.75022C12.0491 3.76054 12.0258 3.76654 12.0019 3.7678L12.2129 7.76224C12.7671 7.73296 13.31 7.59361 13.8098 7.35226L12.0705 3.75022ZM12.0019 3.7678C11.978 3.76907 11.9542 3.76555 11.9318 3.75752L10.5817 7.5228C11.1042 7.71013 11.6587 7.79151 12.2129 7.76224L12.0019 3.7678ZM11.9318 3.75752C11.9094 3.74949 11.889 3.73713 11.8717 3.72131L9.16991 6.67096C9.57928 7.04592 10.0593 7.33547 10.5817 7.5228L11.9318 3.75752ZM11.8717 3.72131C11.8544 3.70548 11.8406 3.68652 11.831 3.66561L8.19772 5.33875C8.42999 5.84312 8.76054 6.29599 9.16991 6.67096L11.8717 3.72131ZM11.831 3.66561C11.8214 3.64471 11.816 3.6222 11.8153 3.59938L7.81753 3.7337C7.83618 4.28872 7.96546 4.83438 8.19772 5.33875L11.831 3.66561ZM11.8153 3.59938C11.8145 3.57656 11.8183 3.55377 11.8265 3.53231L8.08915 2.10673C7.89124 2.62556 7.79888 3.17868 7.81753 3.7337L11.8153 3.59938ZM11.8265 3.53231C11.8347 3.51085 11.8471 3.49107 11.8632 3.47418L8.96982 0.712275C8.58649 1.11386 8.28705 1.5879 8.08915 2.10673L11.8265 3.53231ZM11.905 3.42905C12.227 3.07026 12.4292 2.61977 12.4831 2.14022L8.5081 1.69374C8.54724 1.34526 8.6942 1.01799 8.92805 0.757405L11.905 3.42905ZM12.4809 2.15925C12.5141 1.88711 12.4943 1.61117 12.4228 1.34661L8.56157 2.39122C8.49847 2.15797 8.48105 1.91466 8.51033 1.67472L12.4809 2.15925ZM12.4922 1.86892V1.86548H8.49217V1.86892H12.4922ZM11.8418 0.389472L11.0007 -0.379594L8.30147 2.57242L9.14258 3.34149L11.8418 0.389472ZM9.65106 -0.903585H9.64991V3.09642H9.65106V-0.903585ZM9.46463 1.88441C9.39233 1.95662 9.29542 1.99772 9.19427 1.99991L9.10762 -1.99915C8.1798 -1.97905 7.29507 -1.60201 6.63808 -0.94589L9.46463 1.88441ZM9.19427 1.99991C9.09312 2.0021 8.99458 1.96524 8.91928 1.8963L11.6204 -1.05391C10.9356 -1.68089 10.0354 -2.01926 9.10762 -1.99915L9.19427 1.99991ZM8.91817 1.89529L9.75813 2.6655L12.4615 -0.282687L11.6215 -1.0529L8.91817 1.89529ZM9.76207 2.6691C9.43801 2.37354 9.39967 2.00763 9.4151 1.82812L13.4004 2.17065C13.4617 1.45783 13.2835 0.46705 12.4576 -0.286286L9.76207 2.6691ZM9.41606 1.8173C9.43255 1.63698 9.50351 1.48254 9.62046 1.35601L12.5579 4.07102C13.0324 3.55767 13.3348 2.88823 13.3995 2.18147L9.41606 1.8173ZM9.61583 1.36104C9.32631 1.67643 9.1017 2.04583 8.95495 2.4482L12.7128 3.81874C12.6794 3.91037 12.6283 3.99437 12.5626 4.06599L9.61583 1.36104ZM8.95495 2.4482C8.8082 2.85058 8.74222 3.27796 8.76083 3.70591L12.7571 3.53216C12.7613 3.62971 12.7462 3.7271 12.7128 3.81874L8.95495 2.4482ZM8.76083 3.70591C8.77943 4.13385 8.88226 4.55388 9.06335 4.94198L12.6881 3.25058C12.7294 3.33892 12.7528 3.43461 12.7571 3.53216L8.76083 3.70591ZM9.06335 4.94198C9.24444 5.33007 9.50022 5.67857 9.81596 5.96765L12.5171 3.01745C12.5888 3.08305 12.6469 3.16224 12.6881 3.25058L9.06335 4.94198ZM9.81596 5.96765C10.1317 6.25673 10.5012 6.48075 10.9033 6.62703L12.2707 2.86802C12.3617 2.90112 12.4455 2.95185 12.5171 3.01745L9.81596 5.96765ZM10.9033 6.62703C11.3055 6.77331 11.7324 6.83904 12.1599 6.8205L11.9866 2.82426C12.0832 2.82007 12.1798 2.83492 12.2707 2.86802L10.9033 6.62703ZM12.1599 6.8205C12.5873 6.80196 13.007 6.69952 13.395 6.51895L11.7072 2.89248C11.795 2.8516 11.8899 2.82845 11.9866 2.82426L12.1599 6.8205ZM13.395 6.51895C13.783 6.33837 14.1317 6.08317 14.4212 5.76778L11.4745 3.06282C11.5402 2.99121 11.6193 2.93337 11.7072 2.89248L13.395 6.51895ZM14.4249 5.76376C14.31 5.8896 14.1637 5.97286 13.987 6.00473L13.277 2.06826C12.5801 2.19397 11.9409 2.5519 11.4708 3.06685L14.4249 5.76376ZM14.0251 5.99747C13.8682 6.02894 13.706 6.02353 13.5514 5.98164L14.5977 2.1209C14.1544 2.00076 13.6892 1.98523 13.2388 2.07551L14.0251 5.99747ZM13.5514 5.98164C13.3969 5.93975 13.2539 5.86248 13.1341 5.75575L15.7938 2.76815C15.4506 2.46257 15.041 2.24105 14.5977 2.1209L13.5514 5.98164ZM13.1135 5.73719L14.1299 6.66762L16.8308 3.71713L15.8144 2.7867L13.1135 5.73719ZM14.1291 6.66688C14.0904 6.63142 14.059 6.58851 14.0368 6.54054L17.6677 4.86219C17.4675 4.42907 17.1833 4.04014 16.8316 3.71788L14.1291 6.66688ZM14.0368 6.54054C14.0147 6.49256 14.0022 6.44057 14.0003 6.38759L17.9976 6.24084C17.9801 5.76394 17.8679 5.29532 17.6677 4.86219L14.0368 6.54054ZM14.0003 6.38759C13.9983 6.33461 14.0069 6.28181 14.0256 6.2323L17.7697 7.64C17.9376 7.19334 18.0151 6.71775 17.9976 6.24084L14.0003 6.38759ZM14.0256 6.2323C14.0442 6.18279 14.0724 6.13763 14.1084 6.09938L17.0196 8.84256C17.3467 8.49538 17.6017 8.08664 17.7697 7.64L14.0256 6.2323ZM14.1084 6.09936L6.54651 14.1242L9.45765 16.8674L17.0196 8.84258L14.1084 6.09936ZM6.54647 14.1242C6.58293 14.0855 6.62665 14.0547 6.67496 14.0334L8.28723 17.6941C8.72871 17.4997 9.12676 17.2186 9.45769 16.8674L6.54647 14.1242ZM6.67496 14.0334C6.72328 14.0122 6.77528 14.0008 6.8279 14L6.88751 17.9996C7.36978 17.9924 7.84576 17.8886 8.28723 17.6941L6.67496 14.0334ZM6.8279 14C6.88052 13.9993 6.93282 14.009 6.98173 14.0289L5.47933 17.736C5.92639 17.9172 6.40525 18.0068 6.88751 17.9996L6.8279 14ZM6.98173 14.0289C7.03063 14.0487 7.07523 14.0782 7.11281 14.1157L4.28475 16.9445C4.62601 17.2857 5.03226 17.5548 5.47933 17.736L6.98173 14.0289ZM7.11208 14.115L6.07617 13.0804L3.24957 15.9107L4.28548 16.9453L7.11208 14.115ZM6.07617 13.0804C6.31025 13.3142 6.39337 13.6159 6.39103 13.8408C6.38912 14.0248 6.33519 14.1734 6.24778 14.3039L2.9244 12.0779C2.38945 12.8766 1.92922 14.592 3.24957 15.9107L6.07617 13.0804ZM6.25107 14.299C6.66827 13.6721 6.85555 12.92 6.78071 12.1704L2.8005 12.5678C2.78342 12.3969 2.82618 12.2255 2.92111 12.0828L6.25107 14.299ZM6.78071 12.1704C6.70586 11.4209 6.3736 10.7207 5.84093 10.1888L3.01433 13.019C2.89333 12.8982 2.81757 12.7388 2.8005 12.5678L6.78071 12.1704ZM5.84093 10.1888C5.30831 9.65682 4.60819 9.32577 3.85959 9.25122L3.46318 13.2315C3.29392 13.2147 3.13527 13.1398 3.01433 13.019L5.84093 10.1888ZM3.85959 9.25122C3.11102 9.17667 2.35946 9.36312 1.73247 9.77932L3.94466 13.1119C3.80253 13.2063 3.63243 13.2484 3.46318 13.2315L3.85959 9.25122ZM1.73669 9.77653C1.86137 9.69421 2.00598 9.64093 2.18889 9.63926C2.41285 9.63721 2.71353 9.72032 2.9464 9.95356L0.11573 12.7797C1.43505 14.1012 3.14737 13.6383 3.94044 13.1147L1.73669 9.77653ZM2.94437 9.95153L1.88325 8.89177L-0.943358 11.722L0.117764 12.7818L2.94437 9.95153ZM1.88317 8.8917C1.92004 8.92852 1.94943 8.97237 1.96952 9.02082L-1.72526 10.5533C-1.54389 10.9906 -1.27814 11.3877 -0.943286 11.7221L1.88317 8.8917ZM1.96952 9.02082C1.98962 9.06928 2 9.1213 2 9.1739H-2C-2 9.64734 -1.90662 10.1161 -1.72526 10.5533L1.96952 9.02082ZM2 9.1739C2 9.2265 1.98962 9.27852 1.96952 9.32698L-1.72526 7.79446C-1.90662 8.23172 -2 8.70046 -2 9.1739H2ZM1.96952 9.32698C1.94943 9.37542 1.92004 9.41928 1.88317 9.4561L-0.943286 6.6257C-1.27814 6.96009 -1.54389 7.35721 -1.72526 7.79446L1.96952 9.32698ZM1.88314 9.45613L9.46455 1.88564L6.63816 -0.944827L-0.943251 6.62567L1.88314 9.45613ZM10.0514 0.470405V0.46926H6.05135V0.470405H10.0514Z" fill="white" mask="url(#path-1-inside-1_895_19727)"/>
</svg>
