<svg width="14" height="4" viewBox="0 0 14 4" fill="none" xmlns="http://www.w3.org/2000/svg">
<path d="M5.98386 1.93125C5.98386 2.32043 6.32761 2.63593 6.75164 2.63593C7.17567 2.63593 7.51941 2.32043 7.51941 1.93125C7.51941 1.54206 7.17567 1.22656 6.75164 1.22656C6.32761 1.22656 5.98386 1.54206 5.98386 1.93125Z" stroke="white" stroke-linecap="round" stroke-linejoin="round"/>
<path d="M11.3584 1.93125C11.3584 2.32043 11.7021 2.63593 12.1261 2.63593C12.5502 2.63593 12.8939 2.32043 12.8939 1.93125C12.8939 1.54206 12.5502 1.22656 12.1261 1.22656C11.7021 1.22656 11.3584 1.54206 11.3584 1.93125Z" stroke="white" stroke-linecap="round" stroke-linejoin="round"/>
<path d="M0.609474 1.93125C0.609474 2.32043 0.953218 2.63593 1.37725 2.63593C1.80128 2.63593 2.14502 2.32043 2.14502 1.93125C2.14502 1.54206 1.80128 1.22656 1.37725 1.22656C0.953218 1.22656 0.609474 1.54206 0.609474 1.93125Z" stroke="white" stroke-linecap="round" stroke-linejoin="round"/>
</svg>
