<svg width="17" height="16" viewBox="0 0 17 16" fill="none" xmlns="http://www.w3.org/2000/svg">
<path d="M15.2897 10.7813C14.8013 11.8415 14.0373 12.7757 13.0646 13.5023C12.092 14.2289 10.9401 14.7257 9.70991 14.9494C8.47968 15.173 7.2085 15.1166 6.00749 14.7852C4.80648 14.4537 3.71222 13.8573 2.82037 13.048C1.92852 12.2388 1.26624 11.2413 0.891429 10.1428C0.516618 9.04436 0.44069 7.87835 0.670282 6.74673C0.899873 5.61511 1.42799 4.55234 2.20847 3.65133C2.98895 2.75032 3.99803 2.03851 5.14747 1.57812" stroke="white" stroke-linecap="round" stroke-linejoin="round"/>
<path d="M15.8962 8.03903C15.8962 7.11363 15.6976 6.19728 15.3118 5.34232C14.926 4.48736 14.3604 3.71052 13.6475 3.05616C12.9345 2.4018 12.0881 1.88273 11.1566 1.5286C10.2251 1.17446 9.22676 0.992188 8.21851 0.992188V8.03903H15.8962Z" stroke="white" stroke-linecap="round" stroke-linejoin="round"/>
</svg>
