<svg width="17" height="19" viewBox="0 0 17 19" fill="none" xmlns="http://www.w3.org/2000/svg">
<path d="M16.2209 16.7639L11.0322 11.0832C11.8374 9.94351 12.2729 8.55012 12.2729 7.08453C12.2729 5.33021 11.6476 3.68525 10.5167 2.44498C9.3859 1.2047 7.87945 0.522217 6.27908 0.522217C4.67872 0.522217 3.17227 1.20688 2.04143 2.44498C0.908586 3.68307 0.285225 5.33021 0.285225 7.08453C0.285225 8.83667 0.910584 10.486 2.04143 11.7241C3.17227 12.9644 4.67673 13.6468 6.27908 13.6468C7.61771 13.6468 8.88841 13.17 9.92935 12.2906L15.118 17.9692C15.1332 17.9859 15.1513 17.9991 15.1712 18.0081C15.1911 18.0172 15.2124 18.0218 15.2339 18.0218C15.2554 18.0218 15.2767 18.0172 15.2966 18.0081C15.3165 17.9991 15.3346 17.9859 15.3498 17.9692L16.2209 17.0177C16.2361 17.001 16.2482 16.9813 16.2564 16.9595C16.2647 16.9377 16.2689 16.9144 16.2689 16.8908C16.2689 16.8673 16.2647 16.8439 16.2564 16.8222C16.2482 16.8004 16.2361 16.7806 16.2209 16.7639ZM9.44384 10.5494C8.59671 11.4747 7.47386 11.9844 6.27908 11.9844C5.08431 11.9844 3.96146 11.4747 3.11433 10.5494C2.26919 9.62196 1.80367 8.39262 1.80367 7.08453C1.80367 5.77644 2.26919 4.54492 3.11433 3.61963C3.96146 2.69434 5.08431 2.18467 6.27908 2.18467C7.47386 2.18467 8.59871 2.69216 9.44384 3.61963C10.289 4.5471 10.7545 5.77644 10.7545 7.08453C10.7545 8.39262 10.289 9.62415 9.44384 10.5494Z" fill="white"/>
</svg>
