<svg width="147" height="59" viewBox="0 0 147 59" fill="none" xmlns="http://www.w3.org/2000/svg">
<path d="M13.9962 48.4915C21.9789 48.4915 27.4603 43.6906 27.5135 36.8094C27.5667 31.1018 24.0012 27.4745 18.5197 25.5008L15.8589 24.5406C11.8675 23.1004 10.0049 22.1935 10.0049 20.1665C10.0049 18.1928 12.2933 17.286 14.5816 17.286C16.9764 17.286 19.3712 18.2995 21.1274 20.4332L26.662 14.5655C23.1497 10.7782 19.0519 9.33796 14.4752 9.33796C6.91829 9.33796 1.43688 13.6587 1.43688 21.02C1.43688 26.1942 4.84281 29.8749 10.9628 31.9553L13.6237 32.8621C17.4022 34.1423 18.8923 35.4759 18.8923 37.3962C18.8923 39.2099 17.1361 40.5434 14.3155 40.5434C11.5482 40.5434 8.30195 38.9432 6.49255 36.2227L0 41.717C2.92697 45.9844 8.03587 48.4915 13.9962 48.4915Z" fill="white"/>
<path d="M32.373 47.8514H40.4088V0L32.373 7.84435V47.8514Z" fill="white"/>
<path d="M57.7786 48.4381C61.3441 48.4381 63.9518 46.6245 65.0162 45.1842V47.8514L73.052 51.7738V21.18H65.0162V23.8472C63.9518 22.4069 61.3441 20.5933 57.7786 20.5933C50.8071 20.5933 45.4321 26.9411 45.4321 34.5157C45.4321 42.0904 50.8071 48.4381 57.7786 48.4381ZM59.588 41.1302C55.9692 41.1302 53.5212 38.3564 53.5212 34.5157C53.5212 30.675 55.9692 27.9012 59.588 27.9012C63.2068 27.9012 65.6548 30.675 65.6548 34.5157C65.6548 38.3564 63.2068 41.1302 59.588 41.1302Z" fill="white"/>
<path d="M90.5756 59L107.126 21.18H98.2922L91.7464 37.6629L85.1474 21.18H76.3665L87.4357 46.3044L81.9011 59H90.5756Z" fill="white"/>
<path d="M111.02 47.8514H119.482V33.0221H131.03V24.914H119.482V18.0861H134.276V9.97807H111.02V47.8514Z" fill="white"/>
<path d="M138.964 47.8514H147V21.18H138.964V47.8514Z" fill="white"/>
</svg>
