<svg width="281" height="86" viewBox="0 0 281 86" fill="none" xmlns="http://www.w3.org/2000/svg">
<path fill-rule="evenodd" clip-rule="evenodd" d="M9.86846 23.7314C9.86846 26.4565 7.65933 28.6656 4.93423 28.6656C2.20913 28.6656 0 26.4565 0 23.7314C0 21.0063 2.20913 18.7971 4.93423 18.7971C7.65933 18.7971 9.86846 21.0063 9.86846 23.7314ZM28.1303 23.7314C28.1303 26.4565 25.9212 28.6656 23.1961 28.6656C20.471 28.6656 18.2618 26.4565 18.2618 23.7314C18.2618 21.0063 20.471 18.7971 23.1961 18.7971C25.9212 18.7971 28.1303 21.0063 28.1303 23.7314ZM41.458 28.6656C44.1831 28.6656 46.3922 26.4565 46.3922 23.7314C46.3922 21.0063 44.1831 18.7971 41.458 18.7971C38.7329 18.7971 36.5237 21.0063 36.5237 23.7314C36.5237 26.4565 38.7329 28.6656 41.458 28.6656ZM9.86846 41.9932C9.86846 44.7183 7.65933 46.9274 4.93423 46.9274C2.20913 46.9274 0 44.7183 0 41.9932C0 39.2681 2.20913 37.059 4.93423 37.059C7.65933 37.059 9.86846 39.2681 9.86846 41.9932ZM23.1961 46.9274C25.9212 46.9274 28.1303 44.7183 28.1303 41.9932C28.1303 39.2681 25.9212 37.059 23.1961 37.059C20.471 37.059 18.2618 39.2681 18.2618 41.9932C18.2618 44.7183 20.471 46.9274 23.1961 46.9274ZM46.3922 41.9932C46.3922 44.7183 44.1831 46.9274 41.458 46.9274C38.7329 46.9274 36.5237 44.7183 36.5237 41.9932C36.5237 39.2681 38.7329 37.059 41.458 37.059C44.1831 37.059 46.3922 39.2681 46.3922 41.9932ZM4.93423 65.9725C7.65933 65.9725 9.86846 63.7633 9.86846 61.0382C9.86846 58.3131 7.65933 56.104 4.93423 56.104C2.20913 56.104 0 58.3131 0 61.0382C0 63.7633 2.20913 65.9725 4.93423 65.9725ZM28.1303 61.0382C28.1303 63.7633 25.9212 65.9725 23.1961 65.9725C20.471 65.9725 18.2618 63.7633 18.2618 61.0382C18.2618 58.3131 20.471 56.104 23.1961 56.104C25.9212 56.104 28.1303 58.3131 28.1303 61.0382Z" fill="url(#paint0_linear_41_558)"/>
<path d="M41.458 58.2839C42.0652 58.2813 42.6596 58.459 43.1658 58.7945C43.672 59.13 44.0672 59.6082 44.3014 60.1685C44.5355 60.7288 44.5981 61.346 44.4813 61.9419C44.3644 62.5378 44.0732 63.0856 43.6447 63.5159C43.2163 63.9462 42.6697 64.2397 42.0743 64.3591C41.4789 64.4785 40.8615 64.4186 40.3002 64.1868C39.7389 63.955 39.259 63.5618 38.9214 63.0571C38.5837 62.5523 38.4035 61.9587 38.4035 61.3515C38.4034 60.5402 38.7248 59.7619 39.2973 59.187C39.8698 58.6121 40.6467 58.2874 41.458 58.2839ZM41.458 56.4172C40.4821 56.4172 39.5281 56.7066 38.7167 57.2488C37.9053 57.791 37.2728 58.5616 36.8994 59.4632C36.5259 60.3648 36.4282 61.3569 36.6185 62.3141C36.8089 63.2712 37.2789 64.1504 37.969 64.8405C38.659 65.5306 39.5382 66.0005 40.4954 66.1909C41.4525 66.3813 42.4446 66.2836 43.3462 65.9101C44.2479 65.5367 45.0185 64.9042 45.5607 64.0928C46.1028 63.2814 46.3922 62.3274 46.3922 61.3515C46.3922 60.0428 45.8724 58.7878 44.947 57.8625C44.0217 56.9371 42.7666 56.4172 41.458 56.4172Z" fill="white"/>
<path d="M105.433 20.8986L97.1835 29.6053C95.6941 27.824 93.7565 26.4722 91.5705 25.6893C89.0127 24.7743 86.2123 24.8021 83.6731 25.7676C82.96 25.967 82.3243 26.3783 81.8501 26.9469C81.376 27.5156 81.0857 28.2149 81.0178 28.9523C80.9498 29.6896 81.1074 30.4302 81.4697 31.0759C81.832 31.7217 82.3819 32.2422 83.0466 32.5685C84.7428 33.4776 86.4856 34.2967 88.268 35.0225C91.205 36.2496 94.2856 37.2025 97.1444 38.5992C99.3874 39.5711 101.366 41.065 102.914 42.9564C104.463 44.8479 105.537 47.0821 106.047 49.4728C106.953 53.2624 106.474 57.2514 104.695 60.7182C102.916 64.185 99.9553 66.9008 96.3481 68.3743C87.537 72.2904 75.3319 70.006 68.6094 63.1529C67.8262 62.3436 67.1343 61.4298 66.325 60.4769L75.4625 52.7101C77.2142 54.2578 79.0628 55.6923 80.9972 57.0047C82.3255 57.8416 83.8147 58.3903 85.3685 58.6151C86.9223 58.84 88.5061 58.7361 90.0172 58.31C90.9259 58.1764 91.7702 57.7624 92.4324 57.126C93.0946 56.4895 93.5417 55.6622 93.7113 54.7595C93.8836 53.8541 93.7565 52.9173 93.349 52.0906C92.9416 51.264 92.276 50.5925 91.453 50.1777C89.5536 49.1433 87.5918 48.2278 85.579 47.4365C82.5767 46.1311 79.3916 45.2173 76.5459 43.6509C70.5804 40.3484 67.7478 35.1661 68.5311 28.3C69.3143 21.4338 73.0345 16.8129 79.509 14.8026C88.5551 11.97 96.9225 13.3798 104.089 20.0241C104.519 20.342 104.968 20.634 105.433 20.8986Z" fill="url(#paint1_linear_41_558)"/>
<path d="M172.659 75.0317C169.356 73.4261 160.911 69.2621 160.911 69.2621C160.911 69.014 160.911 66.2075 160.911 66.0639C159.449 67.1397 157.909 68.104 156.303 68.9488C149.776 71.7944 142.31 69.7189 137.336 63.8448C129.504 54.6291 131.318 39.5783 140.978 32.8036C146.722 28.77 154.358 28.8092 159.423 32.921C159.88 33.2865 160.297 33.7043 160.911 34.2264V30.5584C160.911 30.5584 169.617 30.5584 172.659 30.5584V75.0317ZM144.307 50.0212C144.287 50.3341 144.287 50.648 144.307 50.961C144.646 54.2897 145.925 57.0831 149.084 58.6104C150.454 59.3446 151.999 59.6879 153.551 59.6027C155.103 59.5175 156.601 59.0072 157.882 58.1274C161.12 55.9997 162.046 52.6971 161.798 48.9899C161.784 47.6279 161.451 46.2882 160.825 45.0782C160.2 43.8682 159.3 42.8215 158.197 42.022C157.094 41.2225 155.82 40.6925 154.475 40.4744C153.131 40.2564 151.754 40.3563 150.455 40.7662C146.669 41.8888 144.281 45.4655 144.307 50.0212Z" fill="url(#paint2_linear_41_558)"/>
<path d="M240.211 69.3534H227.914V14.5286H261.54V26.2767H240.276V35.9886H256.867V47.8281H240.211V69.3534Z" fill="url(#paint3_linear_41_558)"/>
<path d="M177.476 30.6235H190.203L199.81 54.4071L209.339 30.6235H222.145C222.145 30.6235 205.906 67.9044 198.152 85.5136H185.53L193.545 67.082L177.476 30.6235Z" fill="url(#paint4_linear_41_558)"/>
<path d="M125.235 0V1.6056C125.235 23.6791 125.105 47.2929 125.144 69.3664L113.396 69.262V11.4871L125.235 0Z" fill="url(#paint5_linear_41_558)"/>
<path d="M268.511 69.3142V30.6105H280.259V69.3794L268.511 69.3142Z" fill="url(#paint6_linear_41_558)"/>
<defs>
<linearGradient id="paint0_linear_41_558" x1="46" y1="18.9987" x2="1.81046" y2="65.9806" gradientUnits="userSpaceOnUse">
<stop stop-color="#DFDFDF"/>
<stop offset="1" stop-color="#596170"/>
</linearGradient>
<linearGradient id="paint1_linear_41_558" x1="279.241" y1="96.1914" x2="79.9921" y2="39.8523" gradientUnits="userSpaceOnUse">
<stop offset="0.23" stop-color="#58616F"/>
<stop offset="0.67" stop-color="#C6C9CD"/>
<stop offset="0.83" stop-color="#D3D4D6"/>
<stop offset="0.99" stop-color="#DCDCDC"/>
</linearGradient>
<linearGradient id="paint2_linear_41_558" x1="282.426" y1="84.9132" x2="83.1901" y2="28.5612" gradientUnits="userSpaceOnUse">
<stop offset="0.23" stop-color="#58616F"/>
<stop offset="0.67" stop-color="#C6C9CD"/>
<stop offset="0.83" stop-color="#D3D4D6"/>
<stop offset="0.99" stop-color="#DCDCDC"/>
</linearGradient>
<linearGradient id="paint3_linear_41_558" x1="290.885" y1="54.9945" x2="91.6487" y2="-1.34457" gradientUnits="userSpaceOnUse">
<stop offset="0.23" stop-color="#58616F"/>
<stop offset="0.67" stop-color="#C6C9CD"/>
<stop offset="0.83" stop-color="#D3D4D6"/>
<stop offset="0.99" stop-color="#DCDCDC"/>
</linearGradient>
<linearGradient id="paint4_linear_41_558" x1="283.64" y1="80.6316" x2="84.404" y2="24.2795" gradientUnits="userSpaceOnUse">
<stop offset="0.23" stop-color="#58616F"/>
<stop offset="0.67" stop-color="#C6C9CD"/>
<stop offset="0.83" stop-color="#D3D4D6"/>
<stop offset="0.99" stop-color="#DCDCDC"/>
</linearGradient>
<linearGradient id="paint5_linear_41_558" x1="283.522" y1="81.0624" x2="84.2735" y2="24.7106" gradientUnits="userSpaceOnUse">
<stop offset="0.23" stop-color="#58616F"/>
<stop offset="0.67" stop-color="#C6C9CD"/>
<stop offset="0.83" stop-color="#D3D4D6"/>
<stop offset="0.99" stop-color="#DCDCDC"/>
</linearGradient>
<linearGradient id="paint6_linear_41_558" x1="290.989" y1="54.6551" x2="91.7403" y2="-1.69701" gradientUnits="userSpaceOnUse">
<stop offset="0.23" stop-color="#58616F"/>
<stop offset="0.67" stop-color="#C6C9CD"/>
<stop offset="0.83" stop-color="#D3D4D6"/>
<stop offset="0.99" stop-color="#DCDCDC"/>
</linearGradient>
</defs>
</svg>
