<svg width="23" height="22" viewBox="0 0 23 22" fill="none" xmlns="http://www.w3.org/2000/svg">
<path d="M8.20605 11.3485C8.20605 12.0672 8.76733 12.6533 9.44778 12.6533C10.1392 12.6533 10.6895 12.0677 10.6895 11.3485C10.7005 10.6341 10.1444 10.0436 9.44778 10.0436C8.75639 10.0436 8.20605 10.6292 8.20605 11.3485Z" fill="white"/>
<path d="M12.7971 11.3485C12.7971 12.0672 13.3578 12.6533 14.0388 12.6533C14.7359 12.6533 15.2805 12.0677 15.2805 11.3485C15.2915 10.6341 14.7354 10.0436 14.0388 10.0436C13.3468 10.0436 12.7971 10.6292 12.7971 11.3485Z" fill="white"/>
<path fill-rule="evenodd" clip-rule="evenodd" d="M11.7389 21.7119C17.7345 21.7119 22.5948 16.8515 22.5948 10.8559C22.5948 4.86037 17.7345 0 11.7389 0C5.74333 0 0.882965 4.86037 0.882965 10.8559C0.882965 16.8515 5.74333 21.7119 11.7389 21.7119ZM13.7147 5.92304C14.702 6.08203 15.6461 6.36163 16.5269 6.73992C16.5346 6.74284 16.5409 6.74828 16.5447 6.75527C18.1054 8.90548 18.8756 11.332 18.5878 14.1248C18.5871 14.1307 18.5851 14.1364 18.582 14.1415C18.5788 14.1466 18.5745 14.151 18.5694 14.1544C17.5226 14.8807 16.3544 15.4332 15.1142 15.7887C15.1054 15.7912 15.0961 15.791 15.0874 15.7883C15.0788 15.7855 15.0712 15.7803 15.0658 15.7733C14.805 15.4329 14.5679 15.0743 14.3606 14.6977C14.3578 14.6925 14.3562 14.6868 14.3558 14.6809C14.3555 14.6751 14.3565 14.6693 14.3587 14.6638C14.361 14.6584 14.3644 14.6534 14.3688 14.6493C14.3732 14.6452 14.3784 14.6421 14.3842 14.6401C14.7601 14.5074 15.1182 14.3479 15.4625 14.1593C15.4686 14.1558 15.4737 14.151 15.4774 14.1451C15.4811 14.1393 15.4832 14.1327 15.4835 14.1259C15.4839 14.1191 15.4824 14.1124 15.4794 14.1062C15.4763 14.1001 15.4717 14.0948 15.4659 14.0908C15.3928 14.0398 15.3208 13.9866 15.2518 13.9329C15.2454 13.9281 15.2378 13.9251 15.2298 13.9242C15.2217 13.9233 15.2136 13.9246 15.2063 13.9279C12.9721 14.895 10.5237 14.895 8.26304 13.9279C8.25576 13.9248 8.2477 13.9237 8.23977 13.9246C8.23185 13.9256 8.22435 13.9286 8.21814 13.9334C8.14906 13.9866 8.07652 14.0398 8.00399 14.0908C7.99828 14.0949 7.99373 14.1003 7.99075 14.1064C7.98777 14.1126 7.98645 14.1194 7.98691 14.1262C7.98736 14.133 7.98958 14.1396 7.99337 14.1454C7.99715 14.1511 8.00238 14.1559 8.00859 14.1593C8.35405 14.3463 8.71437 14.5073 9.08626 14.6407C9.09201 14.6426 9.09726 14.6457 9.10166 14.6497C9.10605 14.6537 9.10948 14.6586 9.11172 14.664C9.11396 14.6694 9.11495 14.6752 9.11463 14.681C9.11431 14.6868 9.11268 14.6925 9.10986 14.6977C8.90659 15.0746 8.6705 15.4346 8.40408 15.7739C8.39846 15.7806 8.39084 15.7856 8.38221 15.7881C8.37359 15.7907 8.36436 15.7907 8.35572 15.7881C7.11764 15.4317 5.95135 14.8794 4.90569 14.1544C4.90073 14.1508 4.89658 14.1462 4.89351 14.141C4.89045 14.1359 4.88852 14.1301 4.88785 14.1242C4.64664 11.7086 5.13769 9.26239 6.9292 6.75417C6.93361 6.74756 6.94004 6.7424 6.94762 6.73937C7.82898 6.36053 8.77309 6.08093 9.7598 5.92194C9.76871 5.9206 9.77783 5.92187 9.78596 5.92559C9.79408 5.92931 9.80082 5.93531 9.80528 5.94277C9.93673 6.1611 10.0553 6.38623 10.1605 6.61711C11.2076 6.46812 12.2721 6.46812 13.3192 6.61711C13.4136 6.40878 13.5483 6.14508 13.6692 5.94277C13.6737 5.9354 13.6805 5.92954 13.6887 5.926C13.6968 5.92246 13.7059 5.92143 13.7147 5.92304Z" fill="white"/>
</svg>
