<svg width="24" height="23" viewBox="0 0 27 26" fill="none" xmlns="http://www.w3.org/2000/svg">
<path d="M19.4949 9.64189L13.4887 14.5698L7.49145 9.64189C7.27758 9.46366 7.10826 9.05375 7.3756 8.68839C7.63403 8.32303 8.10632 8.31412 8.41821 8.5369L13.4887 11.9766L18.5681 8.5369C18.88 8.31412 19.3523 8.32303 19.6107 8.68839C19.878 9.05375 19.7087 9.46366 19.4949 9.64189Z" fill="white"/>
<path fill-rule="evenodd" clip-rule="evenodd" d="M13.4412 0C6.46965 0 0.799072 5.67058 0.799072 12.6421C0.799072 19.6136 6.46965 25.2842 13.4412 25.2842C20.4127 25.2842 26.0833 19.6136 26.0833 12.6421C26.0833 5.67058 20.4127 0 13.4412 0ZM19.3968 6.90614H7.58947C6.47557 6.90614 5.91416 7.4319 5.91416 8.50125V16.0045C5.91416 17.0649 6.47557 17.5996 7.58947 17.5996H19.3968C20.5107 17.5996 21.0721 17.0649 21.0721 16.0045V8.50125C21.0721 7.4319 20.5107 6.90614 19.3968 6.90614Z" fill="white"/>
</svg>
