<svg width="24" height="23" viewBox="0 0 27 26" fill="none" xmlns="http://www.w3.org/2000/svg">
<path d="M14.4553 15.6052C13.7697 15.8125 13.0333 15.7753 12.372 15.5001C11.9496 15.3249 11.5713 15.0583 11.2643 14.7194C10.9573 14.3805 10.7293 13.9777 10.5966 13.5401C10.464 13.1025 10.43 12.6409 10.4972 12.1886C10.5643 11.7363 10.7309 11.3045 10.985 10.9243C11.239 10.5441 11.5742 10.225 11.9664 9.98989C12.3586 9.75478 12.7981 9.60956 13.2531 9.56468C13.7082 9.51979 14.1675 9.57636 14.5981 9.73032C15.0287 9.88427 15.4198 10.1318 15.7432 10.455C16.2506 10.9607 16.5667 11.6268 16.6375 12.3396C16.7083 13.0524 16.5294 13.7677 16.1314 14.3633C15.7334 14.9589 15.141 15.3978 14.4553 15.6052Z" fill="white"/>
<path fill-rule="evenodd" clip-rule="evenodd" d="M13.5561 5.04165C16.0315 5.04165 16.3248 5.05092 17.3024 5.09559C18.2067 5.13689 18.6973 5.28775 19.0243 5.41502C19.4269 5.56353 19.7912 5.80024 20.0904 6.1078C20.4149 6.43228 20.6146 6.74159 20.7832 7.17395C20.9105 7.50096 21.0613 7.99148 21.1026 8.89581C21.1473 9.87347 21.1566 10.1668 21.1566 12.6421C21.1566 15.1174 21.1473 15.4107 21.1026 16.3884C21.0613 17.2927 20.9105 17.7832 20.7832 18.1102C20.6349 18.5122 20.398 18.8772 20.0904 19.1764C19.7659 19.5009 19.4566 19.7006 19.0243 19.8692C18.6973 19.9964 18.2067 20.1473 17.3024 20.1886C16.3248 20.2333 16.0323 20.2425 13.5561 20.2425C11.08 20.2425 10.7875 20.2333 9.80985 20.1886C8.90552 20.1473 8.415 19.9964 8.08799 19.8692C7.68598 19.7208 7.32104 19.484 7.02184 19.1764C6.71422 18.8772 6.47739 18.5122 6.32906 18.1102C6.20179 17.7832 6.05093 17.2927 6.00963 16.3884C5.96496 15.4107 5.95569 15.1174 5.95569 12.6421C5.95569 10.1668 5.96496 9.87347 6.00963 8.89581C6.05093 7.99148 6.20179 7.50096 6.32906 7.17395C6.47754 6.77133 6.71426 6.40704 7.02184 6.1078C7.34632 5.78332 7.65563 5.58358 8.08799 5.41502C8.415 5.28775 8.90552 5.13689 9.80985 5.09559C10.7875 5.05092 11.0808 5.04165 13.5561 5.04165ZM11.7325 8.23957C11.1544 8.47904 10.6291 8.83005 10.1866 9.27255C9.29293 10.1662 8.79087 11.3783 8.79087 12.6421C8.79087 13.9059 9.29293 15.118 10.1866 16.0116C11.0802 16.9053 12.2923 17.4073 13.5561 17.4073C14.82 17.4073 16.032 16.9053 16.9257 16.0116C17.3682 15.5691 17.7192 15.0438 17.9587 14.4657C18.1981 13.8875 18.3214 13.2679 18.3214 12.6421C18.3214 12.0163 18.1981 11.3967 17.9587 10.8185C17.7192 10.2404 17.3682 9.71504 16.9257 9.27255C16.4832 8.83005 15.9579 8.47904 15.3797 8.23957C14.8016 8.00009 14.1819 7.87683 13.5561 7.87683C12.9303 7.87683 12.3107 8.00009 11.7325 8.23957ZM19.6364 8.2207C19.5757 8.35867 19.4879 8.48306 19.3782 8.5865C19.165 8.78767 18.8817 8.89781 18.5886 8.89353C18.2955 8.88926 18.0155 8.77091 17.8082 8.56361C17.6009 8.35631 17.4826 8.07638 17.4783 7.78325C17.474 7.49011 17.5842 7.20685 17.7853 6.99359C17.8888 6.88394 18.0132 6.79616 18.1511 6.73544C18.2891 6.67472 18.4379 6.6423 18.5886 6.64011C18.7393 6.63791 18.889 6.66598 19.0286 6.72265C19.1683 6.77932 19.2952 6.86344 19.4018 6.97003C19.5084 7.07662 19.5925 7.20351 19.6492 7.3432C19.7059 7.48288 19.7339 7.63252 19.7317 7.78325C19.7295 7.93397 19.6971 8.08273 19.6364 8.2207Z" fill="white"/>
<path fill-rule="evenodd" clip-rule="evenodd" d="M13.5562 0C6.5748 0 0.914062 5.66073 0.914062 12.6421C0.914062 19.6235 6.5748 25.2842 13.5562 25.2842C20.5376 25.2842 26.1983 19.6235 26.1983 12.6421C26.1983 5.66073 20.5376 0 13.5562 0ZM13.5561 3.37121C11.0378 3.37121 10.7226 3.38132 9.734 3.42683C8.74791 3.47234 8.07282 3.62911 7.48286 3.85751C6.86464 4.0905 6.30465 4.45548 5.84191 4.92703C5.37004 5.39 5.00477 5.95027 4.77155 6.56882C4.54315 7.15878 4.38554 7.83303 4.34087 8.8208C4.2962 9.80857 4.28525 10.1238 4.28525 12.6421C4.28525 15.1596 4.29536 15.4748 4.34087 16.4651C4.38638 17.4512 4.54315 18.1254 4.77155 18.7154C5.00443 19.3339 5.36942 19.8942 5.84107 20.3572C6.30446 20.8285 6.86501 21.1932 7.4837 21.4258C8.07367 21.6551 8.74791 21.8127 9.734 21.8573C10.7226 21.902 11.0378 21.913 13.5561 21.913C16.0744 21.913 16.3896 21.9029 17.3791 21.8573C18.3652 21.8118 19.0394 21.6551 19.6294 21.4258C20.2472 21.1932 20.8076 20.8291 21.2712 20.3572C21.7426 19.8938 22.1073 19.3332 22.3399 18.7145C22.5691 18.1246 22.7267 17.4503 22.7714 16.4642C22.8161 15.4756 22.827 15.1604 22.827 12.6421C22.827 10.1246 22.8169 9.80941 22.7714 8.81912C22.7259 7.83303 22.5691 7.15878 22.3399 6.56882C22.1073 5.9502 21.7432 5.39057 21.2712 4.92787C20.8076 4.4559 20.2472 4.09096 19.6294 3.85751C19.0394 3.62911 18.3652 3.4715 17.3774 3.42683C16.3896 3.38216 16.0744 3.37121 13.5561 3.37121Z" fill="white"/>
</svg>
