<svg width="24" height="24" viewBox="0 0 24 24" fill="none" xmlns="http://www.w3.org/2000/svg">
<path fill-rule="evenodd" clip-rule="evenodd" d="M12.2454 0.323563C5.98679 0.323563 0.896057 5.41429 0.896057 11.6729C0.896057 17.9316 5.98679 23.0223 12.2454 23.0223C18.5041 23.0223 23.5948 17.9316 23.5948 11.6729C23.5948 5.41429 18.5041 0.323563 12.2454 0.323563ZM13.8903 8.57514C14.2413 8.38667 14.6896 8.23746 15.295 8.23746C17.1863 8.23746 19.3947 9.31334 19.3009 12.3429V18.3009C19.3956 18.5583 19.1821 18.7677 18.9187 18.7503H16.1103C15.8469 18.7677 15.6334 18.5583 15.7272 18.3009V12.5366C15.6325 12.0271 15.3789 11.7993 14.8092 11.7993C14.4672 11.7993 14.2199 11.877 14.0761 12.0288C13.8966 12.2199 13.9064 12.4974 13.9073 12.5L13.9082 18.3009C13.9082 18.5583 13.6948 18.7677 13.4314 18.7503H10.7667C10.5033 18.7677 10.2898 18.5583 10.3711 18.314V8.71563C10.2898 8.44513 10.5033 8.23658 10.7667 8.27934H13.4314C13.6492 8.23658 13.8341 8.37969 13.8903 8.57514ZM5.87495 5.66161C5.87495 4.68258 6.68935 3.88679 7.69127 3.88679C8.6932 3.88679 9.5076 4.68258 9.5076 5.66161C9.5076 6.64064 8.6932 7.43643 7.69127 7.43643C6.68935 7.43643 5.87495 6.64064 5.87495 5.66161ZM6.31608 8.23658H8.96645C9.09292 8.23658 9.21421 8.28568 9.30363 8.37306C9.39306 8.46044 9.4433 8.57896 9.4433 8.70254V18.3009C9.4433 18.5583 9.22988 18.7677 8.96645 18.7503H6.31608C6.05265 18.7677 5.83923 18.5583 5.90531 18.314V8.71563C5.83923 8.44513 6.05265 8.23658 6.31608 8.23658Z" fill="white"/>
</svg>
