<svg width="24" height="23" viewBox="0 0 27 26" fill="none" xmlns="http://www.w3.org/2000/svg">
<path fill-rule="evenodd" clip-rule="evenodd" d="M13.4702 0C6.48886 0 0.828125 5.66073 0.828125 12.6421C0.828125 19.6235 6.48886 25.2842 13.4702 25.2842C20.4516 25.2842 26.1124 19.6235 26.1124 12.6421C26.1124 5.66073 20.4516 0 13.4702 0ZM9.06069 18.331C12.2124 18.331 14.7661 15.7837 14.7661 12.6421C14.7651 11.8939 14.6167 11.1532 14.3294 10.4624C14.0422 9.77157 13.6216 9.14409 13.0918 8.61581C12.562 8.08753 11.9333 7.66879 11.2416 7.3835C10.55 7.09822 9.80888 6.95198 9.06069 6.95315C5.91027 6.95315 3.35657 9.49927 3.35657 12.6421C3.35756 13.3902 3.50589 14.1307 3.79309 14.8215C4.08029 15.5122 4.50073 16.1397 5.03041 16.6679C5.56008 17.1962 6.18862 17.615 6.88014 17.9003C7.57166 18.1857 8.31261 18.332 9.06069 18.331ZM18.1719 17.9973C19.7471 17.9973 21.0239 15.6004 21.0239 12.6421C21.0239 9.68511 19.7471 7.2869 18.1719 7.2869C16.5967 7.2869 15.3198 9.68384 15.3198 12.6421C15.3198 15.5991 16.5967 17.9973 18.1719 17.9973ZM22.5802 17.4398C23.1352 17.4398 23.584 15.2919 23.584 12.6421C23.584 9.99231 23.1352 7.84442 22.5814 7.84442C22.0264 7.84442 21.5776 9.99231 21.5776 12.6421C21.5776 15.2906 22.0264 17.4398 22.5802 17.4398Z" fill="white"/>
</svg>
