<svg width="24" height="23" viewBox="0 0 24 23" fill="none" xmlns="http://www.w3.org/2000/svg">
<path d="M12.2454 0.481995C5.97795 0.481995 0.896057 5.50865 0.896057 11.708C0.896057 17.9074 5.97795 22.934 12.2454 22.934C18.5129 22.934 23.5948 17.9074 23.5948 11.708C23.5948 5.50865 18.5129 0.481995 12.2454 0.481995ZM17.6997 8.94411C17.7073 9.06188 17.7073 9.18467 17.7073 9.30495C17.7073 12.9835 14.8751 17.2208 9.69943 17.2208C8.10342 17.2208 6.62395 16.7622 5.37754 15.9729C5.60555 15.998 5.82341 16.008 6.05648 16.008C7.37382 16.008 8.58476 15.567 9.54996 14.8202C8.31369 14.7952 7.27502 13.9933 6.92035 12.8908C7.35355 12.9534 7.74369 12.9534 8.18956 12.8406C7.55299 12.7127 6.98084 12.3708 6.57028 11.8729C6.15973 11.375 5.93611 10.7518 5.93741 10.1093V10.0742C6.30982 10.2822 6.74808 10.41 7.20662 10.4275C6.82115 10.1734 6.50503 9.82919 6.28628 9.4253C6.06754 9.02141 5.95293 8.57038 5.95261 8.11218C5.95261 7.59348 6.08942 7.11988 6.33515 6.70893C7.04171 7.56926 7.92338 8.27291 8.92287 8.77413C9.92236 9.27535 11.0173 9.56293 12.1365 9.61817C11.7388 7.72629 13.1676 6.19524 14.8852 6.19524C15.6959 6.19524 16.4255 6.53102 16.9397 7.07227C17.5756 6.9545 18.1836 6.71895 18.7257 6.40322C18.5155 7.04721 18.0747 7.59097 17.4895 7.93427C18.0569 7.87413 18.6041 7.71877 19.1108 7.50076C18.7283 8.05705 18.2495 8.5507 17.6997 8.94411Z" fill="white"/>
</svg>
